<mxfile host="app.diagrams.net" modified="2021-11-11T01:44:27.217Z" agent="5.0 (Windows)" etag="V4PkTQQLBnpQGMt8LvNx" version="15.7.3" type="github">
  <diagram id="F1QkG2a9lBtnIX4Pw5P4" name="Page-1">
    <mxGraphModel dx="1038" dy="564" grid="1" gridSize="10" guides="1" tooltips="1" connect="1" arrows="1" fold="1" page="1" pageScale="1" pageWidth="850" pageHeight="1100" math="0" shadow="0">
      <root>
        <mxCell id="0" />
        <mxCell id="1" parent="0" />
        <mxCell id="8QvIu1q6RG1TSwFraase-1" value="Node Maestro" style="rounded=0;whiteSpace=wrap;html=1;" vertex="1" parent="1">
          <mxGeometry x="100" y="80" width="120" height="60" as="geometry" />
        </mxCell>
        <mxCell id="8QvIu1q6RG1TSwFraase-2" value="Node Actor" style="rounded=0;whiteSpace=wrap;html=1;" vertex="1" parent="1">
          <mxGeometry x="295" y="80" width="120" height="60" as="geometry" />
        </mxCell>
        <mxCell id="8QvIu1q6RG1TSwFraase-4" value="" style="endArrow=none;dashed=1;html=1;rounded=0;startArrow=none;" edge="1" parent="1" source="8QvIu1q6RG1TSwFraase-7">
          <mxGeometry width="50" height="50" relative="1" as="geometry">
            <mxPoint x="160" y="520" as="sourcePoint" />
            <mxPoint x="160" y="140" as="targetPoint" />
          </mxGeometry>
        </mxCell>
        <mxCell id="8QvIu1q6RG1TSwFraase-5" value="" style="endArrow=none;dashed=1;html=1;rounded=0;startArrow=none;" edge="1" parent="1" source="8QvIu1q6RG1TSwFraase-10">
          <mxGeometry width="50" height="50" relative="1" as="geometry">
            <mxPoint x="354.5" y="520" as="sourcePoint" />
            <mxPoint x="354.5" y="140" as="targetPoint" />
          </mxGeometry>
        </mxCell>
        <mxCell id="8QvIu1q6RG1TSwFraase-7" value="" style="rounded=0;whiteSpace=wrap;html=1;" vertex="1" parent="1">
          <mxGeometry x="145" y="190" width="30" height="170" as="geometry" />
        </mxCell>
        <mxCell id="8QvIu1q6RG1TSwFraase-8" value="" style="endArrow=none;dashed=1;html=1;rounded=0;" edge="1" parent="1" target="8QvIu1q6RG1TSwFraase-7">
          <mxGeometry width="50" height="50" relative="1" as="geometry">
            <mxPoint x="160" y="520" as="sourcePoint" />
            <mxPoint x="160" y="140" as="targetPoint" />
          </mxGeometry>
        </mxCell>
        <mxCell id="8QvIu1q6RG1TSwFraase-10" value="" style="rounded=0;whiteSpace=wrap;html=1;" vertex="1" parent="1">
          <mxGeometry x="340" y="190" width="30" height="170" as="geometry" />
        </mxCell>
        <mxCell id="8QvIu1q6RG1TSwFraase-12" value="" style="endArrow=none;dashed=1;html=1;rounded=0;" edge="1" parent="1" target="8QvIu1q6RG1TSwFraase-10">
          <mxGeometry width="50" height="50" relative="1" as="geometry">
            <mxPoint x="354.5" y="520" as="sourcePoint" />
            <mxPoint x="354.5" y="140" as="targetPoint" />
          </mxGeometry>
        </mxCell>
        <mxCell id="8QvIu1q6RG1TSwFraase-13" value="" style="endArrow=classic;html=1;rounded=0;entryX=-0.033;entryY=0.3;entryDx=0;entryDy=0;entryPerimeter=0;" edge="1" parent="1" target="8QvIu1q6RG1TSwFraase-10">
          <mxGeometry relative="1" as="geometry">
            <mxPoint x="180" y="241" as="sourcePoint" />
            <mxPoint x="270" y="240" as="targetPoint" />
          </mxGeometry>
        </mxCell>
        <mxCell id="8QvIu1q6RG1TSwFraase-15" value="new (name, properties)" style="text;html=1;strokeColor=none;fillColor=none;align=center;verticalAlign=middle;whiteSpace=wrap;rounded=0;" vertex="1" parent="1">
          <mxGeometry x="220" y="200" width="90" height="30" as="geometry" />
        </mxCell>
      </root>
    </mxGraphModel>
  </diagram>
</mxfile>
